<svg xmlns="http://www.w3.org/2000/svg" viewBox="0 0 280 48" width="280" height="48">
  <defs>
    <clipPath id="shield-clip">
      <path d="M24 4L8 10v14c0 11 8 20 16 22 8-2 16-11 16-22V10L24 4z" />
    </clipPath>
  </defs>
  <!-- Outer shield - dark blue -->
  <path
    d="M24 4L8 10v14c0 11 8 20 16 22 8-2 16-11 16-22V10L24 4z"
    fill="#1e3a5f"
    stroke="#94a3b8"
    stroke-width="0.5"
    stroke-linejoin="round"
  />
  <!-- Grey accent upper right -->
  <path d="M36 12l-8 2v6l8-2v-6z" fill="#94a3b8" opacity="0.6" />
  <!-- Inner shield - medium blue -->
  <path
    d="M24 8L12 12.5v12c0 8.5 6 15.5 12 17.5 6-2 12-9 12-17.5v-12L24 8z"
    fill="#2563eb"
    stroke="#7dd3fc"
    stroke-width="0.4"
    stroke-linejoin="round"
  />
  <g clip-path="url(#shield-clip)">
    <!-- Circuitry lines - cyan -->
    <path
      d="M14 20h6M14 24h8M14 28h6M18 20v12M22 22v8"
      stroke="#22d3ee"
      stroke-width="0.8"
      stroke-linecap="round"
      fill="none"
    />
    <circle cx="14" cy="20" r="1.2" fill="#22d3ee" />
    <circle cx="14" cy="24" r="1.2" fill="#22d3ee" />
    <circle cx="14" cy="28" r="1.2" fill="#22d3ee" />
    <circle cx="18" cy="20" r="1.2" fill="#22d3ee" />
    <circle cx="22" cy="22" r="1.2" fill="#22d3ee" />
    <circle cx="26" cy="24" r="1.2" fill="#22d3ee" />
    <path
      d="M26 24h6M30 22v4"
      stroke="#22d3ee"
      stroke-width="0.8"
      stroke-linecap="round"
      fill="none"
    />
    <!-- Dashed flow lines left -->
    <path
      d="M10 22h2M10 26h2"
      stroke="#22d3ee"
      stroke-width="0.6"
      stroke-dasharray="1 1"
      stroke-linecap="round"
      fill="none"
    />
    <circle cx="10" cy="22" r="0.5" fill="#22d3ee" />
    <circle cx="10" cy="26" r="0.5" fill="#22d3ee" />
  </g>
  <!-- BEYOND-ADS-DNS text -->
  <text x="52" y="32" font-family="system-ui, -apple-system, sans-serif" font-size="18" font-weight="700" letter-spacing="0.02em">
    <tspan fill="#1e3a5f">BEYOND-ADS-</tspan><tspan fill="#94a3b8">DNS</tspan>
  </text>
</svg>
